AmiriTypewriter-Bold.sfdir
StartChar: uni064B
Encoding: 1611 1611 151
Width: 872
GlyphClass: 4
Flags: W
AnchorPoint: "arMarkMarkAbove" 529 1640 mark 0
AnchorPoint: "TashkilAbove" 529 1640 mark 0
LayerCount: 2
Fore
SplineSet
681 2085 m 2,0,1
 719 2111 719 2111 741 2104 c 128,-1,2
 763 2097 763 2097 749 2051 c 2,3,-1
 728 1987 l 2,4,5
 715 1950 715 1950 688 1933 c 2,6,-1
 330 1713 l 2,7,8
 307 1700 307 1700 286 1704 c 128,-1,9
 265 1708 265 1708 271 1747 c 2,10,-1
 277 1786 l 1,11,12
 284 1821 284 1821 318 1844 c 1,13,-1
 681 2085 l 2,0,1
673 2290 m 2,14,15
 706 2311 706 2311 728 2305 c 128,-1,16
 750 2299 750 2299 740 2256 c 2,17,-1
 725 2204 l 2,18,19
 713 2164 713 2164 675 2142 c 2,20,-1
 313 1931 l 2,21,22
 273 1908 273 1908 251 1917 c 0,23,24
 230 1926 230 1926 248 1970 c 1,25,-1
 266 2009 l 2,26,27
 280 2042 280 2042 304 2057 c 2,28,-1
 673 2290 l 2,14,15
EndSplineSet
EndChar
StartChar: uni064F
Encoding: 1615 1615 154
Width: 872
GlyphClass: 4
Flags: W
AnchorPoint: "arMarkMark" 570 1640 mark 0
AnchorPoint: "TashkilAbove" 570 1640 mark 0
LayerCount: 2
Fore
SplineSet
634 2363 m 1,0,1
 679 2368 679 2368 708 2323 c 0,2,3
 760 2241 760 2241 712 2108 c 1,4,5
 736 2095 736 2095 748 2089 c 0,6,7
 790 2072 790 2072 767 2027 c 2,8,-1
 744 1983 l 2,9,10
 727 1950 727 1950 702 1959.5 c 128,-1,11
 677 1969 677 1969 649 1984 c 1,12,13
 508 1802 508 1802 331 1713 c 0,14,15
 278 1687 278 1687 256 1726 c 0,16,17
 234 1767 234 1767 292 1799 c 0,18,19
 465 1900 465 1900 569 2028 c 1,20,21
 427 2107 427 2107 465 2197 c 0,22,23
 528 2346 528 2346 634 2363 c 1,0,1
623 2151 m 1,24,25
 623 2187 623 2187 610 2199 c 128,-1,26
 597 2211 597 2211 584 2219 c 0,27,28
 569 2228 569 2228 554 2202 c 1,29,30
 562 2182 562 2182 623 2151 c 1,24,25
EndSplineSet
EndChar
StartChar: uni0651
Encoding: 1617 1617 155
Width: 872
GlyphClass: 4
Flags: W
AnchorPoint: "arMarkMarkAbove" 427 1640 mark 0
AnchorPoint: "TashkilAbove" 427 1640 mark 0
AnchorPoint: "arMarkMarkAbove" 500 2000 basemark 0
LayerCount: 2
Fore
SplineSet
600 2015 m 0,0,1
 608 2071 608 2071 644 2069 c 0,2,3
 681 2067 681 2067 684 2024 c 0,4,5
 684 2018 684 2018 683 2013 c 0,6,7
 676 1901 676 1901 641 1825 c 0,8,9
 598 1732 598 1732 517 1725 c 1,10,11
 469 1722 469 1722 427 1765 c 1,12,13
 397 1722 397 1722 355 1699 c 1,14,15
 298 1670 298 1670 243 1691 c 1,16,17
 113 1745 113 1745 209 1996 c 0,18,19
 227 2041 227 2041 265 2029 c 0,20,21
 268 2028 268 2028 270 2028 c 0,22,23
 302 2013 302 2013 290 1967 c 0,24,25
 284 1944 284 1944 281 1926 c 0,26,27
 273 1861 273 1861 310 1854 c 1,28,29
 362 1847 362 1847 399 1950 c 0,30,31
 409 1977 409 1977 418 2010 c 0,32,33
 429 2053 429 2053 462 2049 c 0,34,35
 464 2049 464 2049 465 2048 c 0,36,37
 498 2040 498 2040 496 2011 c 0,38,39
 496 2007 496 2007 495 2003 c 1,40,-1
 495 2004 l 2,41,42
 492 1985 492 1985 492 1970 c 0,43,44
 491 1918 491 1918 525 1913 c 0,45,46
 529 1913 529 1913 533 1912 c 0,47,48
 582 1911 582 1911 596 1991 c 0,49,50
 599 2002 599 2002 600 2015 c 0,0,1
EndSplineSet
EndChar
StartChar: uni0664
Encoding: 1636 1636 32
Width: 872
VWidth: 0
GlyphClass: 2
Flags: W
LayerCount: 2
Back
SplineSet
511.407226562 949.290039062 m 1,0,1
 498.891601562 911.413085938 498.891601562 911.413085938 478.536132812 848.201171875 c 1,2,3
 471.290039062 830.778320312 471.290039062 830.778320312 458.1015625 826.096679688 c 0,4,5
 339.134765625 783.840820312 339.134765625 783.840820312 233.482421875 704.397460938 c 0,6,7
 217.404296875 693.407226562 217.404296875 693.407226562 261.8203125 664.53515625 c 128,-1,8
 306.236328125 635.663085938 306.236328125 635.663085938 428.248046875 563.93359375 c 1,9,10
 463.9375 540.1640625 463.9375 540.1640625 438.4140625 495.203125 c 1,11,12
 415.083984375 457.974609375 415.083984375 457.974609375 354.540039062 379.291992188 c 128,-1,13
 293.99609375 300.609375 293.99609375 300.609375 265.518554688 251.658203125 c 0,14,15
 261.955078125 245.1953125 261.955078125 245.1953125 266.96875 241.111328125 c 0,16,17
 329.967773438 174.745117188 329.967773438 174.745117188 477.300292969 151.4921875 c 128,-1,18
 624.6328125 128.239257812 624.6328125 128.239257812 739.454101562 182.415039062 c 1,19,-1
 749.810546875 159.841796875 l 1,20,21
 669.954101562 -20.9091796875 669.954101562 -20.9091796875 471.30859375 -20.7055664062 c 128,-1,22
 272.663085938 -20.501953125 272.663085938 -20.501953125 155.684570312 110.154296875 c 1,23,24
 129.10546875 145.063476562 129.10546875 145.063476562 137.491210938 183.8359375 c 0,25,26
 161.543945312 291.02734375 161.543945312 291.02734375 293.145507812 449.119140625 c 0,27,28
 301.798828125 460.239257812 301.798828125 460.239257812 291.065429688 467.854492188 c 2,29,-1
 155.9921875 553.62109375 l 1,30,31
 108.245117188 586.150390625 108.245117188 586.150390625 127.940429688 631.638671875 c 0,32,33
 233.338867188 872.841796875 233.338867188 872.841796875 482.037109375 965.125 c 0,34,35
 523.08984375 981 523.08984375 981 511.407226562 949.290039062 c 1,0,1
EndSplineSet
Fore
SplineSet
467 -41 m 1,0,1
 289 -41 289 -41 153 84 c 0,2,3
 118 116 118 116 123 152 c 0,4,5
 137 260 137 260 290 454 c 1,6,7
 266 470 266 470 223 496.5 c 128,-1,8
 180 523 180 523 148 546 c 1,9,10
 124 567 124 567 122.5 589.5 c 128,-1,11
 121 612 121 612 138 652 c 0,12,13
 212 820 212 820 361 920 c 0,14,15
 436 971 436 971 480.5 983.5 c 128,-1,16
 525 996 525 996 532 982 c 128,-1,17
 539 968 539 968 525 927.5 c 128,-1,18
 511 887 511 887 505.5 869.5 c 128,-1,19
 500 852 500 852 495 837 c 0,20,21
 490 822 490 822 485.5 812 c 128,-1,22
 481 802 481 802 420 780.5 c 128,-1,23
 359 759 359 759 272 695 c 1,24,25
 302 674 302 674 382.5 626.5 c 128,-1,26
 463 579 463 579 472 560 c 0,27,28
 491 518 491 518 466.5 481.5 c 128,-1,29
 442 445 442 445 385 370.5 c 128,-1,30
 328 296 328 296 300 251 c 1,31,32
 353 206 353 206 460 185 c 1,33,34
 522 170 522 170 604 173.5 c 128,-1,35
 686 177 686 177 744 204 c 1,36,-1
 765 153 l 1,37,38
 727 67 727 67 683 30 c 0,39,40
 600 -43 600 -43 467 -41 c 1,0,1
EndSplineSet
EndChar
StartChar: arAin.init
Encoding: 65567 -1 68
Width: 872
VWidth: 0
GlyphClass: 2
Flags: W
AnchorPoint: "arMarkAbove" 527 750 basechar 0
AnchorPoint: "arMarkBelow" 540 -250 basechar 0
LayerCount: 2
Back
SplineSet
660.310852051 -1.27645885944 m 0,0,1
 781.970031738 24.126865387 781.970031738 24.126865387 882.690429688 67.6767578125 c 0,2,3
 900.235229492 75.2628555298 900.235229492 75.2628555298 905.893554688 91.1728515625 c 2,4,-1
 943.408203125 196.65625 l 2,5,6
 957.680480957 236.78692627 957.680480957 236.78692627 918.256835938 223.521484375 c 0,7,8
 790.28137207 180.459716797 790.28137207 180.459716797 726.743164062 174.229492188 c 0,9,10
 583.297851562 160.164001465 583.297851562 160.164001465 437.758789062 346.36328125 c 1,11,12
 504.900604248 419.727539062 504.900604248 419.727539062 607.197265625 436.421875 c 0,13,14
 650.42578125 443.4765625 650.42578125 443.4765625 764.580078125 427.837890625 c 1,15,16
 769.158203125 442.89453125 769.158203125 442.89453125 748.935546875 480.044921875 c 1,17,18
 501.423461914 669.325927734 501.423461914 669.325927734 391.103515625 386.6171875 c 0,19,20
 332.185516357 235.63243103 332.185516357 235.63243103 473.252929688 117.0546875 c 1,21,22
 246.666870117 81.9118270874 246.666870117 81.9118270874 -38.5302734375 155.654296875 c 0,23,24
 -75.8007278442 165.154602051 -75.8007278442 165.154602051 -72.275390625 123.12109375 c 0,25,26
 -63.900390625 23.2431640625 -63.900390625 23.2431640625 28.6748046875 -5.0986328125 c 0,27,28
 111.076774597 -30.6100273132 111.076774597 -30.6100273132 208.310852051 -36.5656700134 c 0,29,30
 427.122039795 -49.9679832458 427.122039795 -49.9679832458 660.310852051 -1.27645885944 c 0,0,1
EndSplineSet
Fore
SplineSet
430 140 m 1,0,1
 346 214 346 214 347 313 c 1,2,3
 345 457 345 457 425 540 c 0,4,5
 475 591 475 591 543 604 c 128,-1,6
 611 617 611 617 676 572.5 c 128,-1,7
 741 528 741 528 772 483 c 0,8,9
 773 481 773 481 776 476.5 c 128,-1,10
 779 472 779 472 780 470 c 128,-1,11
 781 468 781 468 783.5 463.5 c 128,-1,12
 786 459 786 459 786.5 456.5 c 128,-1,13
 787 454 787 454 788 449 c 0,14,15
 792 429 792 429 746 436 c 0,16,17
 636 452 636 452 574 431.5 c 128,-1,18
 512 411 512 411 436 351 c 1,19,20
 520 263 520 263 622 220 c 0,21,22
 683 195 683 195 757 211 c 1,23,24
 176 50 176 50 936 260 c 1,25,26
 965 266 965 266 965 250 c 0,27,28
 964 229 964 229 952.5 197 c 128,-1,29
 941 165 941 165 928 123.5 c 128,-1,30
 915 82 915 82 903 58 c 1,31,32
 889 35 889 35 848.5 18 c 128,-1,33
 808 1 808 1 656 -36 c 128,-1,34
 504 -73 504 -73 306.5 -72 c 128,-1,35
 109 -71 109 -71 -7 -27 c 1,36,37
 -46 -10 -46 -10 -62 52.5 c 128,-1,38
 -78 115 -78 115 -75 148 c 128,-1,39
 -72 181 -72 181 -55.5 185 c 128,-1,40
 -39 189 -39 189 -22 185 c 0,41,42
 202 128 202 128 418 138 c 1,43,-1
 430 140 l 1,0,1
EndSplineSet
EndChar
StartChar: arAin.isol
Encoding: 65553 -1 54
Width: 872
VWidth: 0
GlyphClass: 2
Flags: W
AnchorPoint: "arMarkAbove" 84 1255 basechar 0
AnchorPoint: "arMarkBelow" 516 -64 basechar 0
LayerCount: 2
Back
SplineSet
649.487304688 573.416015625 m 2,0,-1
 620.205078125 449.475585938 l 2,1,2
 617.043701172 436.094726562 617.043701172 436.094726562 608.544921875 433.142578125 c 0,3,4
 179.020431519 264.574981689 179.020431519 264.574981689 91.9013671875 27.67578125 c 0,5,6
 17.6303787231 -174.28616333 17.6303787231 -174.28616333 103.45703125 -323.981445312 c 0,7,8
 242.572952271 -566.621643066 242.572952271 -566.621643066 533.00012207 -577.970153809 c 0,9,10
 732.465637207 -585.764343262 732.465637207 -585.764343262 935.29296875 -505.661132812 c 0,11,12
 965.592102051 -493.695007324 965.592102051 -493.695007324 972.525390625 -507.249023438 c 0,13,14
 980.301757812 -522.448242188 980.301757812 -522.448242188 959.462890625 -544.860351562 c 0,15,16
 869.627441406 -637.610839844 869.627441406 -637.610839844 825.927734375 -657.213867188 c 0,17,18
 521.00012207 -792 521.00012207 -792 253 -666 c 1,19,20
 -14.2508640289 -538.768127441 -14.2508640289 -538.768127441 -22.5537109375 -213.747070312 c 0,21,22
 -30.4881000519 111.539794922 -30.4881000519 111.539794922 166.71875 331.8046875 c 1,23,24
 29.949672699 447.558624268 29.949672699 447.558624268 29.08203125 552.41015625 c 0,25,26
 27.6276168823 728.171325684 27.6276168823 728.171325684 155.2890625 792.9375 c 0,27,28
 275.833984375 854.092773438 275.833984375 854.092773438 422.802734375 757.004882812 c 1,29,-1
 417.177734375 726.873046875 l 1,30,31
 174.75 760.311523438 174.75 760.311523438 97.255859375 592.107421875 c 1,32,33
 133.407226562 523.166992188 133.407226562 523.166992188 177.145507812 491.009765625 c 0,34,35
 245.086471558 441.059783936 245.086471558 441.059783936 382.34765625 485.405273438 c 0,36,37
 425.592773438 499.376953125 425.592773438 499.376953125 507.09375 536.30859375 c 0,38,39
 605.373352051 580.844543457 605.373352051 580.844543457 630.78125 588.752929688 c 0,40,41
 654.883239746 596.254821777 654.883239746 596.254821777 649.487304688 573.416015625 c 2,0,-1
EndSplineSet
Fore
SplineSet
662 -740 m 1,0,1
 476 -781 476 -781 302 -719 c 0,2,3
 199 -682 199 -682 117 -614 c 1,4,5
 16 -519 16 -519 -18 -413 c 128,-1,6
 -52 -307 -52 -307 -58 -220 c 128,-1,7
 -64 -133 -64 -133 -38 -14 c 0,8,9
 0 152 0 152 151 329 c 0,10,11
 152 331 152 331 139 342 c 0,12,13
 -43 489 -43 489 1 669 c 0,14,15
 24 765 24 765 77 807 c 0,16,17
 186 893 186 893 295 869 c 1,18,19
 357 857 357 857 394.5 825 c 128,-1,20
 432 793 432 793 445 774.5 c 128,-1,21
 458 756 458 756 441 752 c 128,-1,22
 424 748 424 748 357 750 c 0,23,24
 211 754 211 754 109 623 c 0,25,26
 102 614 102 614 97 604 c 1,27,28
 138 542 138 542 215 504 c 1,29,30
 262 485 262 485 330 502.5 c 128,-1,31
 398 520 398 520 494.5 563 c 128,-1,32
 591 606 591 606 613.5 614 c 128,-1,33
 636 622 636 622 647 623.5 c 128,-1,34
 658 625 658 625 662 613 c 1,35,36
 665 598 665 598 656.5 565 c 128,-1,37
 648 532 648 532 635 471 c 128,-1,38
 622 410 622 410 599 398 c 0,39,40
 589 393 589 393 549 376 c 0,41,42
 304 270 304 270 189 152 c 1,43,44
 27 -10 27 -10 60 -207 c 0,45,46
 70 -268 70 -268 107.5 -328 c 128,-1,47
 145 -388 145 -388 241 -458 c 0,48,49
 433 -598 433 -598 802 -523 c 0,50,51
 803 -523 803 -523 958 -487 c 0,52,53
 990 -480 990 -480 986.5 -500 c 128,-1,54
 983 -520 983 -520 967.5 -538.5 c 128,-1,55
 952 -557 952 -557 935 -576 c 0,56,57
 918 -595 918 -595 885 -631 c 128,-1,58
 852 -667 852 -667 808 -691.5 c 128,-1,59
 764 -716 764 -716 662 -740 c 1,0,1
EndSplineSet
EndChar
StartChar: arAlef.fina.2
Encoding: 65581 -1 82
Width: 872
VWidth: 0
GlyphClass: 2
Flags: W
AnchorPoint: "arCursive" 0 0 entry 0
AnchorPoint: "arMarkAbove" 57 1195 basechar 0
AnchorPoint: "arMarkBelow" 362 -176 basechar 0
LayerCount: 2
Back
SplineSet
743.947265625 150 m 1,0,1
 654.6953125 367.813476562 654.6953125 367.813476562 510.107421875 570.701171875 c 0,2,3
 373.872070312 761.8671875 373.872070312 761.8671875 188.509765625 939.783203125 c 1,4,5
 116.162109375 909.354492188 116.162109375 909.354492188 30.27734375 1047.08300781 c 0,6,7
 -17.7626953125 1124.12207031 -17.7626953125 1124.12207031 43.1293945312 1195.87158203 c 128,-1,8
 104.021484375 1267.62109375 104.021484375 1267.62109375 186.532226562 1169.23632812 c 0,9,10
 417.059570312 894.360351562 417.059570312 894.360351562 558.536132812 681.701171875 c 0,11,12
 781.209960938 346.98828125 781.209960938 346.98828125 783.280273438 166.404296875 c 0,13,14
 783.534179688 126.786132812 783.534179688 126.786132812 773 123.766601562 c 0,15,16
 755.5 118.5 755.5 118.5 743.947265625 150 c 1,0,1
EndSplineSet
Fore
SplineSet
726 157 m 0,0,1
 535 556 535 556 191 897 c 0,2,3
 172 916 172 916 166 922 c 1,4,5
 120 898 120 898 67.5 949 c 128,-1,6
 15 1000 15 1000 -15 1072 c 1,7,8
 -36 1137 -36 1137 19 1201 c 1,9,10
 41 1230 41 1230 69 1244 c 0,11,12
 128 1273 128 1273 174 1226 c 0,13,14
 255 1145 255 1145 432 911 c 0,15,16
 751 491 751 491 788 230 c 0,17,18
 796 173 796 173 789.5 144 c 128,-1,19
 783 115 783 115 769 113.5 c 128,-1,20
 755 112 755 112 745 124 c 128,-1,21
 735 136 735 136 726 157 c 0,0,1
EndSplineSet
EndChar
StartChar: arAlef.isol
Encoding: 65545 -1 46
Width: 872
VWidth: 0
GlyphClass: 2
Flags: W
AnchorPoint: "arMarkAbove" 410 1170 basechar 0
AnchorPoint: "arMarkBelow" 475.5 -142 basechar 0
LayerCount: 2
Back
SplineSet
505.815429688 1140.13378906 m 2,0,1
 506.182617188 36.25 l 2,2,3
 506.200195312 -17.07421875 506.200195312 -17.07421875 470.853515625 -17.07421875 c 0,4,5
 427.33203125 -17.07421875 427.33203125 -17.07421875 426.106445312 36.2529296875 c 2,6,-1
 403.184570312 1034.05761719 l 2,7,8
 402.708984375 1054.74804688 402.708984375 1054.74804688 413.995117188 1067.64648438 c 2,9,-1
 486.325195312 1150.30859375 l 2,10,11
 505.111328125 1171.77929688 505.111328125 1171.77929688 505.815429688 1140.13378906 c 2,0,1
EndSplineSet
Fore
SplineSet
514.815429688 1170.13378906 m 2,0,-1
 522.182617188 36.25 l 2,1,2
 522.529087187 -17.0751957307 522.529087187 -17.0751957307 468.000892188 -17.0747070312 c 128,-1,3
 413.519362502 -17.07421875 413.519362502 -17.07421875 411.106445312 36.2529296875 c 2,4,-1
 366.184570312 1029.05761719 l 2,5,6
 365.252698689 1049.65262832 365.252698689 1049.65262832 376.995117188 1062.64648438 c 2,7,-1
 483.325195312 1180.30859375 l 2,8,9
 514.525002139 1214.83349158 514.525002139 1214.83349158 514.815429688 1170.13378906 c 2,0,-1
EndSplineSet
EndChar
StartChar: arBeh.fina
Encoding: 65576 -1 77
Width: 872
VWidth: 0
GlyphClass: 2
Flags: W
AnchorPoint: "TashkilAbove" 319 700 basechar 0
AnchorPoint: "TashkilBelow" 316 -292 basechar 0
AnchorPoint: "arMarkBelow" 316 -292 basechar 0
AnchorPoint: "arMarkAbove" 319 700 basechar 0
LayerCount: 2
Back
SplineSet
329.61328125 951.604492188 m 1,19,-1
 417.767578125 858.42578125 l 1,20,-1
 321.263671875 765.173828125 l 1,21,-1
 233.75390625 857.004882812 l 1,22,-1
 329.61328125 951.604492188 l 1,19,-1
216.629882812 773.743164062 m 1,23,-1
 304.798828125 680.564453125 l 1,24,-1
 208.294921875 587.297851562 l 1,25,-1
 120.78515625 679.143554688 l 1,26,-1
 216.629882812 773.743164062 l 1,23,-1
425.750976562 780.950195312 m 1,27,-1
 513.919921875 687.771484375 l 1,28,-1
 417.401367188 594.51953125 l 1,29,-1
 329.90625 686.350585938 l 1,30,-1
 425.750976562 780.950195312 l 1,27,-1
EndSplineSet
Fore
Refer: 47 -1 N 1 0 0 1 0 0 2
EndChar
StartChar: arBeh.init
Encoding: 65563 -1 64
Width: 872
VWidth: 0
GlyphClass: 2
Flags: W
AnchorPoint: "TashkilAbove" 618 700 basechar 0
AnchorPoint: "TashkilBelow" 404 -324 basechar 0
AnchorPoint: "arMarkBelow" 404 -324 basechar 0
AnchorPoint: "arMarkAbove" 618 700 basechar 0
LayerCount: 2
Back
SplineSet
696.407226562 186.025390625 m 1,0,1
 680.879882812 280.0234375 680.879882812 280.0234375 623.961914062 360.29296875 c 1,2,-1
 682.104492188 465.188476562 l 2,3,4
 689.217773438 477.169921875 689.217773438 477.169921875 698.712890625 463.727539062 c 0,5,6
 752.251953125 385.033203125 752.251953125 385.033203125 762.609863281 267.720214844 c 128,-1,7
 772.967773438 150.407226562 772.967773438 150.407226562 744.864257812 120.9453125 c 1,8,9
 669.041015625 4.462890625 669.041015625 4.462890625 434.253417969 -26.76953125 c 128,-1,10
 199.465820312 -58.001953125 199.465820312 -58.001953125 28.6748046875 -5.0986328125 c 0,11,12
 -63.900390625 23.2431640625 -63.900390625 23.2431640625 -72.275390625 123.12109375 c 0,13,14
 -75.9150390625 166.517578125 -75.9150390625 166.517578125 -38.5302734375 155.654296875 c 1,15,16
 420.36328125 40.767578125 420.36328125 40.767578125 696.407226562 186.025390625 c 1,0,1
EndSplineSet
Fore
SplineSet
729 67 m 1,0,1
 668 2 668 2 570 -28.5 c 128,-1,2
 472 -59 472 -59 294.5 -67.5 c 128,-1,3
 117 -76 117 -76 -16 -19 c 1,4,5
 -63 5 -63 5 -76 85 c 0,6,7
 -89 165 -89 165 -58 179 c 0,8,9
 -44 186 -44 186 -3 174 c 0,10,11
 176 124 176 124 386 131 c 1,12,13
 485 133 485 133 578 157 c 128,-1,14
 671 181 671 181 696 192 c 1,15,16
 682 244 682 244 641.5 298 c 128,-1,17
 601 352 601 352 595 358.5 c 128,-1,18
 589 365 589 365 596 374 c 128,-1,19
 603 383 603 383 638 446 c 0,20,21
 672 508 672 508 685.5 509.5 c 128,-1,22
 699 511 699 511 708.5 500 c 128,-1,23
 718 489 718 489 723.5 480.5 c 128,-1,24
 729 472 729 472 732 466.5 c 128,-1,25
 735 461 735 461 741 449 c 128,-1,26
 747 437 747 437 761.5 406.5 c 128,-1,27
 776 376 776 376 782 312 c 0,28,29
 798 147 798 147 729 67 c 1,0,1
EndSplineSet
EndChar
StartChar: arBeh.isol
Encoding: 65546 -1 47
Width: 872
VWidth: 0
GlyphClass: 2
Flags: W
AnchorPoint: "arMarkBelow" 290 -358 basechar 0
AnchorPoint: "arMarkAbove" 320 700 basechar 0
LayerCount: 2
Back
SplineSet
893.578125 290.53515625 m 1,0,-1
 922.962890625 261.370117188 l 1,1,2
 915.892211914 194.517578125 915.892211914 194.517578125 872.54296875 132.961914062 c 0,3,4
 783.955322266 7.16802358627 783.955322266 7.16802358627 474.537475586 -52.1390991211 c 128,-1,5
 165.119598389 -111.446220398 165.119598389 -111.446220398 -100.713867188 -26.8232421875 c 0,6,7
 -266.991088867 26.7231349945 -266.991088867 26.7231349945 -268.328125 174.490234375 c 0,8,9
 -269.252563477 246.658325195 -269.252563477 246.658325195 -253.350585938 321.384765625 c 0,10,11
 -249.486557007 337.893554688 -249.486557007 337.893554688 -228 337.893554688 c 0,12,13
 -200.704467773 337.893554688 -200.704467773 337.893554688 -203.091796875 315.349609375 c 0,14,15
 -217.12638855 192.261428833 -217.12638855 192.261428833 -171.465820312 157.59765625 c 1,16,17
 -65.2861175537 79.9589233398 -65.2861175537 79.9589233398 191.535827637 72.2149047852 c 0,18,19
 465.168334961 63.9639854431 465.168334961 63.9639854431 678.275390625 144.267578125 c 0,20,21
 803.259521484 191.88671875 803.259521484 191.88671875 893.578125 290.53515625 c 1,0,-1
EndSplineSet
Fore
SplineSet
221 -107 m 1,0,1
 0 -104 0 -104 -164 -34 c 1,2,3
 -261 14 -261 14 -277 123 c 1,4,5
 -283 236 -283 236 -260 316 c 1,6,7
 -250 355 -250 355 -216 349 c 1,8,9
 -193 344 -193 344 -198 289.5 c 128,-1,10
 -203 235 -203 235 -186 201 c 1,11,12
 -167 168 -167 168 -82 144 c 0,13,14
 105 91 105 91 321.5 104 c 128,-1,15
 538 117 538 117 696 184 c 1,16,17
 785 224 785 224 868 306 c 0,18,19
 889 327 889 327 893 328 c 128,-1,20
 897 329 897 329 902.5 330.5 c 128,-1,21
 908 332 908 332 910 328 c 1,22,23
 961 291 961 291 915 184 c 0,24,25
 869 77 869 77 776 14 c 1,26,27
 670 -44 670 -44 507 -75.5 c 128,-1,28
 344 -107 344 -107 221 -107 c 1,0,1
EndSplineSet
EndChar
StartChar: arDal.isol
Encoding: 65548 -1 49
Width: 872
VWidth: 0
GlyphClass: 2
Flags: W
AnchorPoint: "arMarkAbove" 543 900 basechar 0
AnchorPoint: "arMarkBelow" 568 -308 basechar 0
LayerCount: 2
Back
SplineSet
595.598632812 592.83984375 m 0,0,1
 589.978942871 603.364807129 589.978942871 603.364807129 595.364257812 613.81640625 c 2,2,-1
 656.438476562 732.346679688 l 2,3,4
 663.886413574 746.801269531 663.886413574 746.801269531 671.233398438 732.625 c 0,5,6
 832.976501465 459.317382812 832.976501465 459.317382812 852.360351562 246.31640625 c 0,7,8
 861.852539062 142.916992188 861.852539062 142.916992188 813.010742188 60.5888671875 c 0,9,10
 776.552307129 -1.96937310696 776.552307129 -1.96937310696 613.103515625 -25.0390625 c 0,11,12
 453.817993164 -47.5201683044 453.817993164 -47.5201683044 339.587890625 -18.46875 c 0,13,14
 252.242446899 3.74526429176 252.242446899 3.74526429176 271.311523438 154.094726562 c 0,15,16
 274.13671875 176.497070312 274.13671875 176.497070312 293.94140625 176.371582031 c 128,-1,17
 313.74609375 176.24609375 313.74609375 176.24609375 316.6484375 155.999023438 c 0,18,19
 324.920898438 109.703125 324.920898438 109.703125 502.928710938 110.850585938 c 128,-1,20
 680.936523438 111.998046875 680.936523438 111.998046875 787.2734375 156.174804688 c 1,21,22
 790.411743164 227.979293823 790.411743164 227.979293823 595.598632812 592.83984375 c 0,0,1
EndSplineSet
Fore
SplineSet
764 -18 m 0,0,1
 645 -69 645 -69 452 -63 c 0,2,3
 355 -60 355 -60 302 -33 c 1,4,5
 265 -10 265 -10 257 57.5 c 128,-1,6
 249 125 249 125 260.5 163 c 128,-1,7
 272 201 272 201 294 199.5 c 128,-1,8
 316 198 316 198 319 175 c 0,9,10
 321 164 321 164 361.5 151 c 128,-1,11
 402 138 402 138 514 139 c 128,-1,12
 626 140 626 140 702.5 155 c 128,-1,13
 779 170 779 170 784 171 c 1,14,15
 703 355 703 355 574 567 c 0,16,17
 560 589 560 589 565 605 c 1,18,19
 599 690 599 690 628 736 c 128,-1,20
 657 782 657 782 668 781 c 0,21,22
 691 779 691 779 788.5 569 c 128,-1,23
 886 359 886 359 878 228.5 c 128,-1,24
 870 98 870 98 812 19 c 0,25,26
 794 -6 794 -6 764 -18 c 0,0,1
EndSplineSet
EndChar
StartChar: arFeh.isol
Encoding: 65554 -1 55
Width: 872
VWidth: 0
GlyphClass: 2
Flags: W
AnchorPoint: "TashkilBelow" 764 -152 basechar 0
AnchorPoint: "TashkilAbove" 709 800 basechar 0
AnchorPoint: "arMarkAbove" 709 800 basechar 0
AnchorPoint: "arMarkBelow" 764 -152 basechar 0
LayerCount: 2
Back
SplineSet
606.107421875 444.251953125 m 0,0,1
 650.840820312 591.665039062 650.840820312 591.665039062 745.068359375 594.7265625 c 0,2,3
 835.758789062 597.672241211 835.758789062 597.672241211 887.049804688 478.79296875 c 0,4,5
 930.66003418 377.715789795 930.66003418 377.715789795 913.000976562 253.342773438 c 0,6,7
 895.057434082 126.965110779 895.057434082 126.965110779 823.475585938 87.85546875 c 0,8,9
 522.894287109 -78 522.894287109 -78 134.321289062 -64.6787109375 c 0,10,11
 -237.295394897 -52.9033699036 -237.295394897 -52.9033699036 -289.336914062 186.29296875 c 0,12,13
 -306.875610352 266.905426025 -306.875610352 266.905426025 -261.900390625 411.869140625 c 0,14,15
 -254 437.333007812 -254 437.333007812 -234 434.333007812 c 0,16,17
 -213.111953735 431.199798584 -213.111953735 431.199798584 -215.772460938 405.936523438 c 0,18,19
 -239.105712891 165.380264282 -239.105712891 165.380264282 -78.736328125 110.23828125 c 1,20,21
 247.640792847 0.687252044678 247.640792847 0.687252044678 689.888916016 155.52180481 c 0,22,23
 783.400146484 188.260818481 783.400146484 188.260818481 847.206054688 237.635742188 c 1,24,25
 855.434570312 263.528320312 855.434570312 263.528320312 848.465820312 294.017578125 c 1,26,27
 743.78125 231.575195312 743.78125 231.575195312 655.446777344 273.669433594 c 128,-1,28
 567.112304688 315.763671875 567.112304688 315.763671875 606.107421875 444.251953125 c 0,0,1
829.364257812 397.875 m 1,29,30
 801.46875 467.430664062 801.46875 467.430664062 744.784179688 482.594238281 c 128,-1,31
 688.099609375 497.7578125 688.099609375 497.7578125 651.634765625 422.030273438 c 1,32,33
 644.756835938 400.600585938 644.756835938 400.600585938 672.183105469 382.358886719 c 128,-1,34
 699.609375 364.1171875 699.609375 364.1171875 745.700683594 365.866210938 c 128,-1,35
 791.791992188 367.615234375 791.791992188 367.615234375 829.364257812 397.875 c 1,29,30
EndSplineSet
Fore
SplineSet
192 -100 m 0,0,1
 -32 -100 -32 -100 -150 -36 c 1,2,3
 -209 4 -209 4 -228.5 35 c 128,-1,4
 -248 66 -248 66 -256.5 81 c 128,-1,5
 -265 96 -265 96 -288.5 152 c 128,-1,6
 -312 208 -312 208 -296.5 294.5 c 128,-1,7
 -281 381 -281 381 -270 413 c 128,-1,8
 -259 445 -259 445 -243 452 c 128,-1,9
 -227 459 -227 459 -215.5 444 c 128,-1,10
 -204 429 -204 429 -205 414 c 128,-1,11
 -206 399 -206 399 -208 375 c 0,12,13
 -220 211 -220 211 -125 149 c 0,14,15
 -86 124 -86 124 -50 114 c 1,16,17
 162 49 162 49 416 96 c 1,18,19
 573 130 573 130 657 157.5 c 128,-1,20
 741 185 741 185 831 230 c 1,21,22
 842 241 842 241 834 288 c 1,23,24
 808 271 808 271 762 265 c 0,25,26
 673 254 673 254 613 298 c 1,27,28
 530 372 530 372 590 529 c 0,29,30
 622 612 622 612 667 641 c 0,31,32
 757 697 757 697 835 640 c 1,33,34
 886 604 886 604 915.5 530 c 128,-1,35
 945 456 945 456 948 362 c 128,-1,36
 951 268 951 268 930.5 192 c 128,-1,37
 910 116 910 116 878 87.5 c 128,-1,38
 846 59 846 59 805 40 c 1,39,40
 533 -101 533 -101 192 -100 c 0,0,1
677 448 m 1,41,42
 694 433 694 433 734.5 432.5 c 128,-1,43
 775 432 775 432 797 444 c 1,44,45
 767 498 767 498 736 501.5 c 128,-1,46
 705 505 705 505 683 470 c 1,47,48
 675 453 675 453 677 448 c 1,41,42
EndSplineSet
EndChar
StartChar: arGaf.isol
Encoding: 65586 -1 125
Width: 872
VWidth: 0
GlyphClass: 2
Flags: W
AnchorPoint: "arMarkBelow" 612 -204 basechar 0
AnchorPoint: "arMarkAbove" 799 1247 basechar 0
LayerCount: 2
Back
SplineSet
901.5 149 m 4,0,1
 879 86 879 86 827.5 42.5 c 132,-1,2
 776 -1 776 -1 632 -36.5 c 132,-1,3
 488 -72 488 -72 367 -70 c 132,-1,4
 246 -68 246 -68 185.5 -58 c 132,-1,5
 125 -48 125 -48 65 -23 c 5,6,7
 33 -5 33 -5 10.5 34.5 c 132,-1,8
 -12 74 -12 74 -14.5 116 c 132,-1,9
 -17 158 -17 158 15 166 c 5,10,11
 34.005859375 166.826171875 34.005859375 166.826171875 60 161 c 4,12,13
 350 96 350 96 523.5 119 c 132,-1,14
 697 142 697 142 824 216 c 5,15,16
 671.90625 490.029296875 671.90625 490.029296875 349 773 c 5,17,18
 320.927734375 854.20703125 320.927734375 854.20703125 358 968 c 4,19,20
 367.912109375 999.072265625 367.912109375 999.072265625 395 1021 c 4,21,22
 416 1038 416 1038 440.5 1054 c 132,-1,23
 465 1070 465 1070 502 1093 c 132,-1,24
 539 1116 539 1116 642.5 1179 c 132,-1,25
 746 1242 746 1242 1120 1446 c 5,26,27
 1165 1467 1165 1467 1172 1447 c 4,28,29
 1175 1438 1175 1438 1175 1417.5 c 132,-1,30
 1175 1397 1175 1397 1175.5 1365.5 c 132,-1,31
 1176 1334 1176 1334 1169.5 1307.5 c 132,-1,32
 1163 1281 1163 1281 1135 1265 c 4,33,34
 659 1002 659 1002 467 887 c 5,35,36
 854.927734375 602.20703125 854.927734375 602.20703125 903 272 c 4,37,38
 915.573242188 188.403320312 915.573242188 188.403320312 901.5 149 c 4,0,1
EndSplineSet
Fore
SplineSet
79 -27 m 0,0,1
 -111 40 -111 40 -83 271 c 1,2,3
 -79 328 -79 328 -65 348 c 128,-1,4
 -51 368 -51 368 -45.5 370 c 128,-1,5
 -40 372 -40 372 -21.5 361 c 128,-1,6
 -3 350 -3 350 -2 340 c 128,-1,7
 -1 330 -1 330 -2 317 c 0,8,9
 -6 249 -6 249 20 225 c 1,10,11
 65 178 65 178 154 159.5 c 128,-1,12
 243 141 243 141 376 138 c 1,13,14
 602 143 602 143 818 200 c 1,15,16
 715.541748047 456.715576172 715.541748047 456.715576172 349 767 c 1,17,18
 329 805 329 805 344.5 897 c 128,-1,19
 360 989 360 989 389.5 1013.5 c 0,20,21
 483.189209165 1091.30968219 483.189209165 1091.30968219 1009.5 1383 c 0,22,23
 1134 1452 1134 1452 1149 1454 c 128,-1,24
 1164 1456 1164 1456 1168 1444.5 c 128,-1,25
 1172 1433 1172 1433 1171.5 1411 c 128,-1,26
 1171 1389 1171 1389 1172.5 1346 c 128,-1,27
 1174 1303 1174 1303 1163 1288 c 128,-1,28
 1152 1273 1152 1273 1137 1266 c 1,29,30
 655.541748047 1005.71557617 655.541748047 1005.71557617 476 883 c 1,31,32
 872 579.715576172 872 579.715576172 909 250.5 c 0,33,34
 908.760779795 250.333007812 908.760779795 250.333007812 896 126 c 0,35,36
 890.903593139 76.5567788307 890.903593139 76.5567788307 829 27.5 c 0,37,38
 713.029596229 -64.4296875 713.029596229 -64.4296875 374 -63.5 c 0,39,40
 181 -63 181 -63 79 -27 c 0,0,1
EndSplineSet
EndChar
StartChar: arHah.isol
Encoding: 65547 -1 48
Width: 872
VWidth: 0
GlyphClass: 2
Flags: W
AnchorPoint: "TashkilBelow" 600 -328 basechar 0
AnchorPoint: "TashkilAbove" 496 700 basechar 0
AnchorPoint: "arMarkAbove" 496 700 basechar 0
AnchorPoint: "arMarkBelow" 600 -328 basechar 0
LayerCount: 2
Back
SplineSet
969.716796875 304.67578125 m 1,0,-1
 923.471679688 158.484375 l 1,1,2
 550.688232422 124.016441345 550.688232422 124.016441345 391.66015625 17.5224609375 c 0,3,4
 27.8054847717 -226.134735107 27.8054847717 -226.134735107 201.40625 -541.0078125 c 0,5,6
 305.775817871 -730.310974121 305.775817871 -730.310974121 547.220703125 -775.692382812 c 0,7,8
 761.796875 -816.023620605 761.796875 -816.023620605 1023.2421875 -712.672851562 c 0,9,10
 1052.26293945 -701.200805664 1052.26293945 -701.200805664 1057.60742188 -714.985351562 c 0,11,12
 1061.9744873 -726.249145508 1061.9744873 -726.249145508 1047.41210938 -751.872070312 c 0,13,14
 1003.27581787 -835.433288574 1003.27581787 -835.433288574 891.5 -879 c 1,15,16
 618.663452148 -980.606018066 618.663452148 -980.606018066 345.5 -870 c 1,17,18
 73.3865661621 -754.755859375 73.3865661621 -754.755859375 65.3955078125 -420.7734375 c 0,19,20
 56.5738754272 -46.4882469177 56.5738754272 -46.4882469177 379.58984375 167.844726562 c 1,21,22
 91.9345703125 214.16796875 91.9345703125 214.16796875 29.08203125 175.989257812 c 1,23,-1
 12.7783203125 192 l 1,24,25
 84.983581543 342.431304932 84.983581543 342.431304932 199.311523438 329.607421875 c 0,26,27
 585.03503418 286.341796875 585.03503418 286.341796875 969.716796875 304.67578125 c 1,0,-1
EndSplineSet
Fore
SplineSet
808 -936 m 1,0,1
 615 -983 615 -983 425 -932 c 0,2,3
 335 -908 335 -908 248 -846 c 1,4,5
 111 -739 111 -739 74.5 -582 c 128,-1,6
 38 -425 38 -425 75 -249.5 c 128,-1,7
 112 -74 112 -74 278 87 c 0,8,9
 310 118 310 118 346 147 c 1,10,11
 160 172 160 172 65 158 c 0,12,13
 44 154 44 154 37.5 154 c 128,-1,14
 31 154 31 154 27.5 153.5 c 128,-1,15
 24 153 24 153 20 154 c 128,-1,16
 16 155 16 155 14.5 155 c 128,-1,17
 13 155 13 155 9 157.5 c 128,-1,18
 5 160 5 160 5 161 c 0,19,20
 -18 176 -18 176 -7 214 c 1,21,22
 41 310 41 310 100 340 c 128,-1,23
 159 370 159 370 237 356 c 1,24,25
 618 316 618 316 1008 336 c 1,26,27
 976 225 976 225 946 131 c 1,28,29
 670 105 670 105 508.5 43.5 c 128,-1,30
 347 -18 347 -18 237 -148 c 1,31,32
 78 -345 78 -345 243 -574 c 1,33,34
 308 -664 308 -664 456 -721.5 c 128,-1,35
 604 -779 604 -779 800 -746 c 0,36,37
 890 -731 890 -731 962.5 -704.5 c 128,-1,38
 1035 -678 1035 -678 1045 -675 c 0,39,40
 1055 -672 1055 -672 1065 -672 c 128,-1,41
 1075 -672 1075 -672 1080.5 -688 c 128,-1,42
 1086 -704 1086 -704 1045 -779.5 c 128,-1,43
 1004 -855 1004 -855 953.5 -883.5 c 128,-1,44
 903 -912 903 -912 808 -936 c 1,0,1
EndSplineSet
EndChar
StartChar: arHamza.kaf
Encoding: 65544 -1 45
Width: 872
VWidth: -1000
GlyphClass: 4
Flags: W
AnchorPoint: "arMarkMarkAbove" 480 349 basemark 0
AnchorPoint: "arMarkAbove" 438 0 mark 0
LayerCount: 2
Back
SplineSet
467.415039062 247.561523438 m 1,0,1
 409.479492188 221.188476562 409.479492188 221.188476562 376.741210938 195.57421875 c 1,2,-1
 541.755859375 160.4765625 l 1,3,4
 635.817382812 138.815429688 635.817382812 138.815429688 554.20703125 41.091796875 c 1,5,6
 497.803710938 -16.0810546875 497.803710938 -16.0810546875 475.8671875 -27.0966796875 c 0,7,8
 416.82421875 -55.5634765625 416.82421875 -55.5634765625 292.131835938 -33.556640625 c 1,9,10
 267.6484375 -27.275390625 267.6484375 -27.275390625 292.087890625 -16.564453125 c 1,11,12
 311.607421875 -9.9287109375 311.607421875 -9.9287109375 386.987792969 8.8505859375 c 128,-1,13
 462.368164062 27.6298828125 462.368164062 27.6298828125 504.607421875 53.923828125 c 1,14,15
 485.575195312 58.3154296875 485.575195312 58.3154296875 438.888671875 68.021484375 c 0,16,17
 342.442382812 88.07421875 342.442382812 88.07421875 322.439453125 95.7890625 c 0,18,19
 241.822265625 126.850585938 241.822265625 126.850585938 337.52734375 241.497070312 c 1,20,21
 411.818359375 325.198242188 411.818359375 325.198242188 482.385742188 372.512695312 c 1,22,23
 497.797851562 379.825195312 497.797851562 379.825195312 499.59375 377.502441406 c 128,-1,24
 501.389648438 375.1796875 501.389648438 375.1796875 500.432617188 363.2109375 c 1,25,-1
 484.626953125 270.530273438 l 2,26,27
 482.479492188 257.81640625 482.479492188 257.81640625 467.415039062 247.561523438 c 1,0,1
EndSplineSet
Fore
SplineSet
378 -79 m 1,0,1
 296 -73 296 -73 261 -51 c 1,2,3
 258 -37 258 -37 288 -24.5 c 128,-1,4
 318 -12 318 -12 335 -7 c 128,-1,5
 352 -2 352 -2 382.5 6 c 128,-1,6
 413 14 413 14 500 46 c 1,7,8
 489 48 489 48 413 62.5 c 128,-1,9
 337 77 337 77 294 93 c 1,10,11
 259 109 259 109 256 138.5 c 128,-1,12
 253 168 253 168 279.5 219 c 128,-1,13
 306 270 306 270 389 355.5 c 128,-1,14
 472 441 472 441 498 427 c 0,15,16
 512 419 512 419 508 383 c 1,17,18
 486 272 486 272 483.5 266.5 c 128,-1,19
 481 261 481 261 469 253 c 1,20,21
 437.5 239 437.5 239 403 218 c 1,22,23
 410 217 410 217 476.5 205 c 128,-1,24
 543 193 543 193 574 180 c 128,-1,25
 605 167 605 167 616 144 c 0,26,27
 643 88 643 88 559 4.5 c 128,-1,28
 475 -79 475 -79 378 -79 c 1,0,1
EndSplineSet
EndChar
StartChar: arHeh.fina2
Encoding: 65593 -1 132
Width: 872
VWidth: 0
GlyphClass: 2
Flags: W
AnchorPoint: "TashkilBelow" 733.604 -368.729 basechar 0
AnchorPoint: "TashkilAbove" 710.151 378.368 basechar 0
AnchorPoint: "arMarkAbove" 710.151 378.368 basechar 0
AnchorPoint: "arMarkBelow" 733.604 -368.729 basechar 0
LayerCount: 2
Back
SplineSet
932.596679688 125.221679688 m 1,0,1
 893.504638672 129.909881592 893.504638672 129.909881592 748.87890625 188.609375 c 0,2,3
 712.08984375 203.541015625 712.08984375 203.541015625 686.462890625 169.775390625 c 0,4,5
 634.1171875 100.807617188 634.1171875 100.807617188 525.009765625 -126.848632812 c 1,6,-1
 584.493164062 -151.235351562 l 1,7,-1
 755.536132812 15.2685546875 l 2,8,9
 771.944885254 31.2418441772 771.944885254 31.2418441772 802.877929688 20.248046875 c 0,10,11
 872 -6.318359375 872 -6.318359375 930.596679688 -16.091796875 c 1,12,13
 955.877685547 -21.3678436279 955.877685547 -21.3678436279 957.030273438 10.681640625 c 2,14,-1
 960.338867188 102.681640625 l 2,15,16
 961.08013916 123.29296875 961.08013916 123.29296875 932.596679688 125.221679688 c 1,0,1
EndSplineSet
Fore
SplineSet
577 -180 m 1,0,1
 500 -148 l 1,2,3
 506 -133 506 -133 518 -104 c 0,4,5
 603 106 603 106 669 196 c 1,6,7
 706 239 706 239 756 218 c 0,8,9
 773 212 773 212 830.5 188.5 c 128,-1,10
 888 165 888 165 960 150 c 1,11,12
 991 137 991 137 982 92 c 1,13,14
 981 83 981 83 980 47 c 0,15,16
 978 -38 978 -38 951 -45 c 0,17,18
 937 -50 937 -50 918.5 -45.5 c 128,-1,19
 900 -41 900 -41 886.5 -38 c 128,-1,20
 873 -35 873 -35 832 -21.5 c 128,-1,21
 791 -8 791 -8 780 -5 c 1,22,23
 770 -8 770 -8 713 -63.5 c 128,-1,24
 656 -119 656 -119 577 -180 c 1,0,1
EndSplineSet
EndChar
StartChar: arHeh.fina3
Encoding: 65591 -1 130
Width: 872
VWidth: 0
GlyphClass: 2
UnlinkRmOvrlpSave: 1
Flags: W
AnchorPoint: "arMarkBelow" 464 -214 basechar 0
AnchorPoint: "arMarkAbove" 563 857 basechar 0
LayerCount: 2
Back
SplineSet
280 163 m 0,0,1
 139.926988152 312 139.926988152 312 389.5625 525.940429688 c 1,2,3
 412.8515625 734.485351562 412.8515625 734.485351562 550.783203125 631.6875 c 0,4,5
 737.083984375 492.837890625 737.083984375 492.837890625 817.258789062 380.9375 c 0,6,7
 901.48046875 263.388671875 901.48046875 263.388671875 881.28125 95.994140625 c 0,8,9
 877.134765625 61.634765625 877.134765625 61.634765625 851.565429688 23.8125 c 0,10,11
 815.185546875 -30 815.185546875 -30 738.3671875 -27.4912109375 c 0,12,13
 628.405523566 -25.1435734307 628.405523566 -25.1435734307 436 61.166015625 c 0,14,15
 329.714693579 108.143554688 329.714693579 108.143554688 280 163 c 0,0,1
725 108.866210938 m 0,16,17
 777.484506566 97.1640625 777.484506566 97.1640625 812.272460938 103.889648438 c 1,18,19
 780.924804688 257.83203125 780.924804688 257.83203125 618.3125 376.995117188 c 1,20,21
 584.856563409 59.8958109451 584.856563409 59.8958109451 305.9140625 -19.6865234375 c 0,22,23
 192.392578125 -52.07421875 192.392578125 -52.07421875 135.814453125 36.2744140625 c 0,24,25
 116.969224526 65.6998910628 116.969224526 65.6998910628 155.737304688 76.412109375 c 0,26,27
 433.180175781 153.073852539 433.180175781 153.073852539 532.311523438 290.481445312 c 1,28,29
 510.099609375 380.0078125 510.099609375 380.0078125 459.58203125 437.493164062 c 1,30,31
 338.506835938 395.594726562 338.506835938 395.594726562 309.801757812 321.448242188 c 1,32,33
 314.342560733 285.270749556 314.342560733 285.270749556 367 256 c 0,34,35
 572.91814515 142.774969094 572.91814515 142.774969094 725 108.866210938 c 0,16,17
EndSplineSet
Fore
SplineSet
252 124 m 0,0,1
 147 229 147 229 207 364 c 0,2,3
 250 461 250 461 352 548 c 1,4,5
 362 633 362 633 394 667 c 0,6,7
 424 698 424 698 464 705 c 0,8,9
 516 714 516 714 601 646 c 0,10,11
 807 483 807 483 874 367 c 0,12,13
 954 228 954 228 914 62 c 1,14,15
 885 -38 885 -38 811 -57 c 0,16,17
 722 -80 722 -80 598 -44 c 0,18,19
 352 26 352 26 252 124 c 0,0,1
379 -5 m 0,20,21
 248 -77 248 -77 167 -21 c 0,22,23
 130 4 130 4 117 28 c 0,24,25
 92 74 92 74 136 89 c 0,26,27
 365 155 365 155 534 288 c 1,28,29
 528 331 528 331 500.5 375 c 128,-1,30
 473 419 473 419 458 435 c 1,31,32
 353 394 353 394 303 324 c 1,33,34
 301 299 301 299 345 271 c 0,35,36
 509 167 509 167 717 113 c 0,37,38
 773 99 773 99 810 104 c 1,39,40
 788 188 788 188 736.5 251.5 c 128,-1,41
 685 315 685 315 625 373 c 1,42,43
 599 115 599 115 379 -5 c 0,20,21
EndSplineSet
EndChar
StartChar: arLam.init
Encoding: 65570 -1 71
Width: 872
VWidth: 0
GlyphClass: 2
Flags: W
AnchorPoint: "arMarkBelow" 496 -271 basechar 0
AnchorPoint: "arMarkAbove" 641 848 basechar 0
LayerCount: 2
Back
SplineSet
749.508789062 1148.66992188 m 2,0,-1
 822.5390625 333.85546875 l 2,1,2
 843.274597168 102.504333496 843.274597168 102.504333496 752.763671875 41.2900390625 c 0,3,4
 661.190429688 -20.642578125 661.190429688 -20.642578125 431.828125 -33.07421875 c 0,5,6
 159.36328125 -46.91796875 159.36328125 -46.91796875 30.7392578125 -8.111328125 c 0,7,8
 -61.0966796875 20.248046875 -61.0966796875 20.248046875 -68.4970703125 115.936523438 c 0,9,10
 -72.0380859375 161.73046875 -72.0380859375 161.73046875 -20.80859375 150.721679688 c 0,11,12
 448.170898438 57.03125 448.170898438 57.03125 759.801757812 178.875976562 c 1,13,-1
 659.809570312 999.763671875 l 2,14,15
 657.51751709 1018.58007812 657.51751709 1018.58007812 666.403320312 1034.41503906 c 2,16,-1
 731.630859375 1150.65429688 l 2,17,18
 746.893188477 1177.85266113 746.893188477 1177.85266113 749.508789062 1148.66992188 c 2,0,-1
EndSplineSet
Fore
SplineSet
711 -13 m 1,0,1
 536 -83 536 -83 186 -63 c 0,2,3
 81 -57 81 -57 2 -30 c 1,4,5
 -68 -3 -68 -3 -77 100 c 1,6,7
 -81 128 -81 128 -65 147.5 c 128,-1,8
 -49 167 -49 167 -15 160 c 0,9,10
 282 102 282 102 475 125 c 128,-1,11
 668 148 668 148 753 179 c 1,12,13
 657 976 657 976 652 1011.5 c 128,-1,14
 647 1047 647 1047 661.5 1072 c 128,-1,15
 676 1097 676 1097 719 1169 c 0,16,17
 734 1196 734 1196 753.5 1196 c 128,-1,18
 773 1196 773 1196 776.5 1168 c 128,-1,19
 780 1140 780 1140 782 1113.5 c 128,-1,20
 784 1087 784 1087 812 798 c 0,21,22
 839 509 839 509 856 273 c 1,23,24
 860 151 860 151 822 76 c 1,25,26
 789 14 789 14 711 -13 c 1,0,1
EndSplineSet
EndChar
StartChar: arLam.medi.1
Encoding: 65579 -1 80
Width: 872
VWidth: 0
GlyphClass: 2
Flags: W
AnchorPoint: "arCursive" 0 0 exit 0
AnchorPoint: "arMarkAbove" 601 1175 basechar 0
AnchorPoint: "arMarkBelow" 858 -208 basechar 0
LayerCount: 2
Back
SplineSet
694.568359375 1266.43359375 m 0,0,1
 695.813476562 1294.81054688 695.813476562 1294.81054688 707.737304688 1309.55859375 c 1,2,-1
 768.89453125 1396.05761719 l 1,3,4
 788.103515625 1421.3125 788.103515625 1421.3125 789.021484375 1386.66796875 c 0,5,6
 792.548828125 1268.20019531 792.548828125 1268.20019531 793.984375 1038.234375 c 128,-1,7
 795.419921875 808.268554688 795.419921875 808.268554688 799.926757812 699.500976562 c 128,-1,8
 804.43359375 590.733398438 804.43359375 590.733398438 829.806640625 429.34375 c 128,-1,9
 855.1796875 267.954101562 855.1796875 267.954101562 904.905273438 129.861328125 c 1,10,11
 923.118164062 51.7099609375 923.118164062 51.7099609375 844.950195312 55.8251953125 c 1,12,-1
 808.752929688 77.888671875 l 1,13,14
 749.887695312 261.865234375 749.887695312 261.865234375 717.5078125 542.9765625 c 1,15,16
 636.3359375 133.193359375 636.3359375 133.193359375 493.591796875 17.5224609375 c 1,17,18
 375.012695312 -70.1865234375 375.012695312 -70.1865234375 126.267578125 -91.6083984375 c 0,19,20
 105.5625 -93.068359375 105.5625 -93.068359375 100.922363281 -88.5581054688 c 128,-1,21
 96.2822265625 -84.0478515625 96.2822265625 -84.0478515625 118.796875 -68.830078125 c 1,22,23
 467.985351562 131.657226562 467.985351562 131.657226562 565.551757812 306 c 0,24,25
 673 498 673 498 694.568359375 1266.43359375 c 0,0,1
EndSplineSet
Fore
SplineSet
101 -65 m 1,0,1
 325 68 325 68 449.5 198 c 128,-1,2
 574 328 574 328 596 414 c 0,3,4
 646 610 646 610 658 892 c 0,5,6
 662 984 662 984 665 1121 c 0,7,8
 668 1258 668 1258 671.5 1280 c 128,-1,9
 675 1302 675 1302 770 1430 c 1,10,11
 805 1480 805 1480 810 1392 c 0,12,13
 811 1371 811 1371 813 1209.5 c 128,-1,14
 815 1048 815 1048 817.5 908 c 128,-1,15
 820 768 820 768 838 575 c 128,-1,16
 856 382 856 382 927 150 c 0,17,18
 953 65 953 65 901 38 c 1,19,20
 865 17 865 17 827 31 c 0,21,22
 823 33 823 33 804.5 43.5 c 128,-1,23
 786 54 786 54 778 69 c 1,24,25
 759 129 759 129 738 326.5 c 128,-1,26
 717 524 717 524 715 539 c 1,27,28
 710 518 710 518 683 400 c 0,29,30
 625 138 625 138 571.5 60.5 c 128,-1,31
 518 -17 518 -17 429 -53 c 1,32,33
 295 -103 295 -103 109 -103 c 0,34,35
 79 -103 79 -103 70 -100 c 0,36,37
 53 -95 53 -95 101 -65 c 1,0,1
EndSplineSet
EndChar
StartChar: arSad.isol
Encoding: 65551 -1 52
Width: 872
VWidth: 0
GlyphClass: 2
Flags: W
AnchorPoint: "arMarkAbove" 390 700 basechar 0
AnchorPoint: "arMarkBelow" 631 -263 basechar 0
LayerCount: 2
Back
SplineSet
750.422851562 460.59375 m 1,0,1
 893.486328125 453.790039062 893.486328125 453.790039062 930.100585938 338.586914062 c 1,2,3
 959.001953125 235.533203125 959.001953125 235.533203125 849.768554688 127.8984375 c 1,4,5
 676.37109375 -47.130859375 676.37109375 -47.130859375 367.99609375 22.1953125 c 1,6,7
 348.3125 -206.337890625 348.3125 -206.337890625 279.446289062 -286.637695312 c 1,8,9
 156.125976562 -452.974609375 156.125976562 -452.974609375 -136.525390625 -449.1328125 c 128,-1,10
 -429.176757812 -445.291015625 -429.176757812 -445.291015625 -443.249023438 -170.900390625 c 0,11,12
 -452.366210938 6.708984375 -452.366210938 6.708984375 -368.952148438 161.311523438 c 0,13,14
 -351.931640625 192.836914062 -351.931640625 192.836914062 -330.998046875 183.113769531 c 128,-1,15
 -310.064453125 173.390625 -310.064453125 173.390625 -323.322265625 140.349609375 c 1,16,17
 -393.767578125 -4.9453125 -393.767578125 -4.9453125 -370.75390625 -134.1328125 c 1,18,19
 -321.654296875 -319.012695312 -321.654296875 -319.012695312 -90.732421875 -309.441894531 c 128,-1,20
 140.189453125 -299.87109375 140.189453125 -299.87109375 281.716796875 -149.77734375 c 1,21,22
 311.549804688 -34.7001953125 311.549804688 -34.7001953125 215.095703125 144.729492188 c 1,23,-1
 252.200195312 259.587890625 l 1,24,25
 258.190429688 281.8671875 258.190429688 281.8671875 272.356445312 259.250976562 c 1,26,27
 329.668945312 183.837890625 329.668945312 183.837890625 353.58203125 167.56640625 c 1,28,29
 541.063476562 459.452148438 541.063476562 459.452148438 750.422851562 460.59375 c 1,0,1
690 338 m 1,30,31
 559.726867676 329.416992188 559.726867676 329.416992188 415.266601562 144.905273438 c 1,32,33
 706 112 706 112 845.491210938 233.528320312 c 0,34,35
 858.747253418 244.561660767 858.747253418 244.561660767 840.588867188 273.458984375 c 0,36,37
 793.690673828 343.660186768 793.690673828 343.660186768 690 338 c 1,30,31
EndSplineSet
Fore
SplineSet
83 -453 m 1,0,1
 -9 -480 -9 -480 -134.5 -479.5 c 128,-1,2
 -260 -479 -260 -479 -348.5 -424 c 128,-1,3
 -437 -369 -437 -369 -455 -241 c 1,4,5
 -480 -83 -480 -83 -400 109 c 0,6,7
 -383 148 -383 148 -366.5 173 c 128,-1,8
 -350 198 -350 198 -329.5 183.5 c 128,-1,9
 -309 169 -309 169 -324 130 c 1,10,11
 -358 57 -358 57 -371 -15.5 c 128,-1,12
 -384 -88 -384 -88 -347 -171 c 0,13,14
 -329 -209 -329 -209 -284.5 -239.5 c 128,-1,15
 -240 -270 -240 -270 -179.5 -283.5 c 128,-1,16
 -119 -297 -119 -297 2 -277 c 1,17,18
 195 -240 195 -240 275 -156 c 1,19,20
 307 -106 307 -106 228 51 c 0,21,22
 188 131 188 131 186 140.5 c 128,-1,23
 184 150 184 150 190 164.5 c 128,-1,24
 196 179 196 179 209.5 223.5 c 128,-1,25
 223 268 223 268 231 284.5 c 128,-1,26
 239 301 239 301 256 283 c 128,-1,27
 273 265 273 265 299 228.5 c 128,-1,28
 325 192 325 192 330 185 c 1,29,30
 559 523 559 523 783 488 c 0,31,32
 889 472 889 472 935 399 c 0,33,34
 964 355 964 355 953 307.5 c 128,-1,35
 942 260 942 260 911 190 c 1,36,37
 848 79 848 79 789 41 c 1,38,39
 661 -38 661 -38 494 -26 c 0,40,41
 452 -24 452 -24 367 -8 c 1,42,43
 349 -171 349 -171 307 -255 c 1,44,45
 218 -416 218 -416 83 -453 c 1,0,1
849 243 m 1,46,47
 805 330 805 330 704 334 c 128,-1,48
 603 338 603 338 477 211 c 0,49,50
 446 180 446 180 423 149 c 1,51,52
 724 121 724 121 849 243 c 1,46,47
EndSplineSet
EndChar
StartChar: arSeen.init
Encoding: 65565 -1 66
Width: 872
VWidth: 0
GlyphClass: 2
Flags: W
AnchorPoint: "arMarkBelow" 510 -224 basechar 0
AnchorPoint: "arMarkAbove" 590 700 basechar 0
LayerCount: 2
Back
SplineSet
851.903320312 354.39453125 m 1,0,1
 885.833984375 263.455078125 885.833984375 263.455078125 863.541137695 131.147460938 c 128,-1,2
 841.248352051 -1.16015625 841.248352051 -1.16015625 777.97265625 -2.6123046875 c 0,3,4
 626.512268066 -6.16015625 626.512268066 -6.16015625 557.079101562 41.0546875 c 1,5,6
 521.624267578 -1.173828125 521.624267578 -1.173828125 441.366210938 -4.53125 c 0,7,8
 256.558319092 -13.8837890625 256.558319092 -13.8837890625 221.415039062 79.8291015625 c 1,9,10
 114.003494263 -31.5084247589 114.003494263 -31.5084247589 19.4408569336 -1.13230717182 c 0,11,12
 -65.3541183472 26.1061706543 -65.3541183472 26.1061706543 -73.4386062622 122.525238037 c 0,13,14
 -77.1897583008 167.263168335 -77.1897583008 167.263168335 -37 154.999023438 c 0,15,16
 115.415870667 106.370254517 115.415870667 106.370254517 196.107421875 164.8046875 c 0,17,18
 215.15687561 178.599731445 215.15687561 178.599731445 283.827148438 316.557617188 c 0,19,20
 294.274230957 337.545684814 294.274230957 337.545684814 321.388671875 329.602539062 c 0,21,22
 345.385650635 321.806976318 345.385650635 321.806976318 335.560546875 296.459960938 c 2,23,-1
 285.765625 167.998046875 l 1,24,25
 331.178771973 138.122070312 331.178771973 138.122070312 432.729492188 137.749023438 c 0,26,27
 529.853393555 137.349609375 529.853393555 137.349609375 541.864257812 163.618164062 c 0,28,29
 577.217529297 248.371520996 577.217529297 248.371520996 602.064453125 324.86328125 c 0,30,31
 609.470153809 347.255554199 609.470153809 347.255554199 634.141601562 335.194335938 c 0,32,33
 654.121948242 325.40725708 654.121948242 325.40725708 649.30078125 302.260742188 c 2,34,-1
 619.510742188 159.23828125 l 1,35,36
 681.388183594 104.340820312 681.388183594 104.340820312 809.217773438 125.092773438 c 1,37,38
 816.299621582 163.51335144 816.299621582 163.51335144 787.6015625 266.38671875 c 0,39,40
 784.599853516 277.146911621 784.599853516 277.146911621 790.897460938 284.375 c 2,41,-1
 851.903320312 354.39453125 l 1,0,1
EndSplineSet
Fore
SplineSet
101.5 -25 m 128,-1,1
 80 -33 80 -33 46 -33 c 128,-1,2
 12 -33 12 -33 -21.5 -9 c 128,-1,3
 -55 15 -55 15 -76 65.5 c 128,-1,4
 -97 116 -97 116 -82 160 c 1,5,6
 -67 192 -67 192 -27 169 c 1,7,8
 117 126 117 126 183 181 c 1,9,10
 207 215 207 215 229 259.5 c 128,-1,11
 251 304 251 304 266 329 c 1,12,13
 281 344 281 344 302 345 c 128,-1,14
 323 346 323 346 337 328 c 1,15,16
 345 307 345 307 322.5 250.5 c 128,-1,17
 300 194 300 194 296 183 c 1,18,19
 341 151 341 151 481 158 c 1,20,21
 501 160 501 160 515 166 c 1,22,23
 522 185 522 185 543.5 248 c 128,-1,24
 565 311 565 311 582 351 c 1,25,26
 606 383 606 383 642 356 c 0,27,28
 658 344 658 344 655.5 331.5 c 128,-1,29
 653 319 653 319 649.5 305 c 128,-1,30
 646 291 646 291 643 275.5 c 128,-1,31
 640 260 640 260 632 221.5 c 128,-1,32
 624 183 624 183 621 168 c 1,33,34
 688 126 688 126 792 138 c 1,35,36
 158 27 158 27 808 139 c 1,37,38
 807 182 807 182 775 281 c 0,39,40
 769 298 769 298 784 314.5 c 128,-1,41
 799 331 799 331 825 358 c 128,-1,42
 851 385 851 385 862 398 c 1,43,44
 918 293 918 293 893 153 c 1,45,46
 878 45 878 45 856 14 c 0,47,48
 816 -41 816 -41 756 -33 c 1,49,50
 578 -26 578 -26 558 35 c 1,51,52
 551 29 551 29 527 0 c 128,-1,53
 503 -29 503 -29 466 -33 c 1,54,55
 280 -42 280 -42 239 25 c 0,56,57
 233 35 233 35 226 50.5 c 128,-1,58
 219 66 219 66 216 72 c 1,59,60
 163 8 163 8 143 -4.5 c 128,-1,0
 123 -17 123 -17 101.5 -25 c 128,-1,1
EndSplineSet
EndChar
StartChar: arYeh.fina
Encoding: 65578 -1 79
Width: 872
VWidth: 0
GlyphClass: 2
Flags: W
AnchorPoint: "arMarkAbove" 495 211 basechar 0
AnchorPoint: "arMarkBelow" 648 -804 basechar 0
LayerCount: 2
Back
SplineSet
681.849609375 -4.5185546875 m 0,0,1
 657.024414062 -19.2394008636 657.024414062 -19.2394008636 698.171386719 -43.032787323 c 128,-1,2
 739.318359375 -66.826171875 739.318359375 -66.826171875 821.224365234 -91.8712844849 c 128,-1,3
 903.130432129 -116.916397095 903.130432129 -116.916397095 926.654296875 -127.653320312 c 0,4,5
 1052.58618164 -185.131942749 1052.58618164 -185.131942749 915.638671875 -359.142578125 c 0,6,7
 742.621520996 -580.519592285 742.621520996 -580.519592285 501.646484375 -585.684570312 c 0,8,9
 88.7183074951 -593.000183105 88.7183074951 -593.000183105 79.197265625 -217.524414062 c 0,10,11
 74.9562988281 -60.0185546875 74.9562988281 -60.0185546875 180.858398438 110.369140625 c 0,12,13
 195.649414062 133.953125 195.649414062 133.953125 214.661132812 123.17578125 c 0,14,15
 234.741500854 111.793228149 234.741500854 111.793228149 221.625 87.224609375 c 0,16,17
 145.557189941 -48.5968017578 145.557189941 -48.5968017578 152.87109375 -160.524414062 c 0,18,19
 173.619338989 -450.637695312 173.619338989 -450.637695312 528.588989258 -430.23248291 c 0,20,21
 725.432312012 -418.723175049 725.432312012 -418.723175049 884.041992188 -287.306640625 c 0,22,23
 896.911376953 -276.64364624 896.911376953 -276.64364624 866.133422852 -264.241271973 c 1,24,-1
 687.12109375 -201.522460938 l 1,25,26
 564.187744141 -149.97013855 564.187744141 -149.97013855 591.805664062 -60.841796875 c 0,27,28
 654.253723145 140.690155029 654.253723145 140.690155029 840.7109375 158.133789062 c 0,29,30
 867.140625 160.481445312 867.140625 160.481445312 875.672851562 128.693359375 c 128,-1,31
 884.205078125 96.9052734375 884.205078125 96.9052734375 871.397949219 58.9516601562 c 128,-1,32
 858.590820312 20.998046875 858.590820312 20.998046875 845.150390625 25.005859375 c 0,33,34
 769.141723633 47.2439193726 769.141723633 47.2439193726 681.849609375 -4.5185546875 c 0,0,1
EndSplineSet
Fore
SplineSet
824 -494 m 0,0,1
 686 -621 686 -621 460 -619 c 0,2,3
 329 -618 329 -618 219 -558 c 128,-1,4
 109 -498 109 -498 77 -336 c 1,5,6
 37 -164 37 -164 139 40 c 0,7,8
 160 83 160 83 182 115 c 1,9,10
 198 136 198 136 218.5 122 c 128,-1,11
 239 108 239 108 214 70 c 1,12,13
 167 -18 167 -18 157 -79 c 0,14,15
 140 -187 140 -187 206 -303 c 0,16,17
 235 -353 235 -353 310 -386 c 128,-1,18
 385 -419 385 -419 488.5 -417 c 128,-1,19
 592 -415 592 -415 701.5 -378.5 c 128,-1,20
 811 -342 811 -342 881 -289 c 1,21,22
 852 -278 852 -278 787 -255 c 128,-1,23
 722 -232 722 -232 688 -219 c 1,24,25
 552 -162 552 -162 595 -42 c 1,26,27
 612 9 612 9 646 61 c 0,28,29
 723 177 723 177 800 197 c 0,30,31
 834 206 834 206 863 205 c 1,32,33
 885 205 885 205 891 172 c 128,-1,34
 897 139 897 139 891 103 c 128,-1,35
 885 67 885 67 876 49 c 1,36,37
 862 32 862 32 811 42 c 1,38,39
 766 44 766 44 741 30 c 128,-1,40
 716 16 716 16 712 13 c 128,-1,41
 708 10 708 10 697 3 c 128,-1,42
 686 -4 686 -4 684 -5 c 1,43,44
 716 -22 716 -22 823 -57.5 c 128,-1,45
 930 -93 930 -93 956 -108 c 128,-1,46
 982 -123 982 -123 991 -137 c 0,47,48
 1021 -184 1021 -184 978 -287.5 c 128,-1,49
 935 -391 935 -391 824 -494 c 0,0,1
EndSplineSet
EndChar
StartChar: arYeh.fina2
Encoding: 65592 -1 131
Width: 872
GlyphClass: 2
Flags: W
AnchorPoint: "TashkilBelow" 702 -524 basechar 0
AnchorPoint: "TashkilAbove" 632 528 basechar 0
AnchorPoint: "arMarkAbove" 632 528 basechar 0
AnchorPoint: "arMarkBelow" 702 -524 basechar 0
LayerCount: 2
Back
SplineSet
575.299804688 224 m 0,0,1
 672.58215332 401.200195312 672.58215332 401.200195312 783.579101562 394.599609375 c 0,2,3
 883.809020996 388.070068359 883.809020996 388.070068359 867.057617188 226 c 0,4,5
 857.319335938 128.102920532 857.319335938 128.102920532 1015.42578125 117.694335938 c 0,6,7
 1055.00854492 115.088493347 1055.00854492 115.088493347 1057.54284668 57.8477478027 c 128,-1,8
 1060.07714844 0.607001781464 1060.07714844 0.607001781464 1026.91894531 0.2958984375 c 0,9,10
 810.956298828 -1.73034632206 810.956298828 -1.73034632206 806.900390625 95.2001953125 c 0,11,12
 799.950561523 255.204483032 799.950561523 255.204483032 724.806640625 246.789215088 c 128,-1,13
 649.662719727 238.373947144 649.662719727 238.373947144 566.5 107.200195312 c 1,14,15
 531.299804688 49.599609375 531.299804688 49.599609375 492.100097656 10 c 128,-1,16
 452.900390625 -29.599609375 452.900390625 -29.599609375 352.040039062 -71.7963867188 c 128,-1,17
 251.1796875 -113.993164062 251.1796875 -113.993164062 225.431640625 -130.11328125 c 0,18,19
 150.799804688 -176.836914062 150.799804688 -176.836914062 207.431640625 -218.849609375 c 1,20,21
 328.608398438 -305.34375 328.608398438 -305.34375 576.544433594 -306.013671875 c 128,-1,22
 824.48046875 -306.68359375 824.48046875 -306.68359375 945.7109375 -258.646484375 c 0,23,24
 983.379882812 -244.3984375 983.379882812 -244.3984375 979.45703125 -291.1796875 c 0,25,26
 971.754882812 -391.353515625 971.754882812 -391.353515625 878.505859375 -410.399414062 c 0,27,28
 665.03515625 -454 665.03515625 -454 438.2421875 -430.935546875 c 0,29,30
 301.092773438 -416.471679688 301.092773438 -416.471679688 193.181640625 -360.30078125 c 0,31,32
 122.416992188 -323.465820312 122.416992188 -323.465820312 112.181640625 -264.30078125 c 0,33,34
 89.9287109375 -130.412109375 89.9287109375 -130.412109375 220.099609375 -17.599609375 c 0,35,36
 256.099609375 13.599609375 256.099609375 13.599609375 357.699707031 54 c 128,-1,37
 459.299804688 94.400390625 459.299804688 94.400390625 497.951416016 123.957000732 c 128,-1,38
 536.603027344 153.51361084 536.603027344 153.51361084 575.299804688 224 c 0,0,1
EndSplineSet
Fore
SplineSet
685 -454 m 1,0,1
 417 -470 417 -470 248 -405 c 0,2,3
 243 -403 243 -403 225.5 -396.5 c 128,-1,4
 208 -390 208 -390 183.5 -380 c 128,-1,5
 159 -370 159 -370 127.5 -334 c 128,-1,6
 96 -298 96 -298 102 -218 c 128,-1,7
 108 -138 108 -138 129 -101 c 0,8,9
 189 5 189 5 337 61 c 0,10,11
 351 67 351 67 379.5 77.5 c 128,-1,12
 408 88 408 88 440.5 101 c 128,-1,13
 473 114 473 114 501 140.5 c 128,-1,14
 529 167 529 167 562 223.5 c 128,-1,15
 595 280 595 280 605.5 293 c 128,-1,16
 616 306 616 306 628 323 c 0,17,18
 640 340 640 340 666.5 371.5 c 128,-1,19
 693 403 693 403 744.5 419 c 128,-1,20
 796 435 796 435 839 402 c 1,21,22
 881 368 881 368 874 244 c 0,23,24
 872 198 872 198 879 188 c 0,25,26
 900 154 900 154 925.5 146.5 c 128,-1,27
 951 139 951 139 1031 130 c 1,28,29
 1081 117 1081 117 1070 28 c 0,30,31
 1065 -13 1065 -13 1033 -30 c 0,32,33
 1026 -34 1026 -34 966 -31 c 128,-1,34
 906 -28 906 -28 852 -2 c 1,35,36
 812 21 812 21 804 99.5 c 128,-1,37
 796 178 796 178 757 204 c 0,38,39
 690 249 690 249 617 167 c 0,40,41
 578 123 578 123 549.5 62.5 c 128,-1,42
 521 2 521 2 495 -20 c 128,-1,43
 469 -42 469 -42 445.5 -56 c 128,-1,44
 422 -70 422 -70 406.5 -77.5 c 128,-1,45
 391 -85 391 -85 359 -98 c 128,-1,46
 327 -111 327 -111 316 -116 c 128,-1,47
 305 -121 305 -121 254.5 -139.5 c 128,-1,48
 204 -158 204 -158 183 -178 c 1,49,50
 268 -264 268 -264 518.5 -271.5 c 128,-1,51
 769 -279 769 -279 911 -237 c 0,52,53
 969 -220 969 -220 976.5 -228.5 c 128,-1,54
 984 -237 984 -237 982 -282 c 128,-1,55
 980 -327 980 -327 965.5 -358.5 c 128,-1,56
 951 -390 951 -390 937 -403 c 128,-1,57
 923 -416 923 -416 879 -429 c 1,58,59
 794 -446 794 -446 685 -454 c 1,0,1
EndSplineSet
EndChar
